<?xml version="1.0" encoding="UTF-8"?>
<svg xmlns="http://www.w3.org/2000/svg" xmlns:xlink="http://www.w3.org/1999/xlink" width="48px" height="36px" viewBox="0 0 48 36" version="1.1">
<g id="surface1">
<path style=" stroke:none;fill-rule:nonzero;fill:rgb(17.647059%,27.058824%,32.156863%);fill-opacity:1;" d="M 15.820312 20.316406 C 14.027344 20.824219 12.855469 21.714844 12.078125 22.605469 C 12.820312 21.957031 13.816406 21.363281 15.15625 20.984375 C 16.527344 20.59375 17.695312 20.597656 18.664062 20.78125 L 18.664062 20.027344 C 17.835938 19.953125 16.890625 20.011719 15.820312 20.316406 Z M 11.996094 13.964844 L 5.34375 15.71875 C 5.34375 15.71875 5.464844 15.890625 5.6875 16.117188 L 11.332031 14.632812 C 11.332031 14.632812 11.25 15.660156 10.558594 16.582031 C 11.871094 15.589844 11.996094 13.964844 11.996094 13.964844 Z M 17.566406 29.601562 C 8.203125 32.125 3.25 21.273438 1.75 15.640625 C 1.054688 13.039062 0.753906 11.070312 0.671875 9.800781 C 0.664062 9.667969 0.667969 9.554688 0.675781 9.453125 C 0.191406 9.484375 -0.0429688 9.738281 0.0078125 10.464844 C 0.0859375 11.738281 0.390625 13.703125 1.082031 16.304688 C 2.582031 21.9375 7.535156 32.792969 16.902344 30.269531 C 18.941406 29.71875 20.472656 28.71875 21.621094 27.441406 C 20.5625 28.398438 19.234375 29.152344 17.566406 29.601562 Z M 19.328125 7.324219 L 19.328125 7.988281 L 23 7.988281 C 22.925781 7.753906 22.851562 7.539062 22.773438 7.324219 Z M 19.328125 7.324219 "/>
<path style=" stroke:none;fill-rule:nonzero;fill:rgb(17.647059%,27.058824%,32.156863%);fill-opacity:1;" d="M 23.820312 12.8125 C 25.472656 13.28125 26.347656 14.4375 26.808594 15.464844 L 28.652344 15.984375 C 28.652344 15.984375 28.398438 12.398438 25.15625 11.476562 C 22.121094 10.617188 20.25 13.164062 20.023438 13.492188 C 20.90625 12.863281 22.195312 12.351562 23.820312 12.8125 Z M 38.484375 15.480469 C 35.445312 14.613281 33.578125 17.167969 33.355469 17.492188 C 34.238281 16.863281 35.527344 16.347656 37.152344 16.8125 C 38.800781 17.28125 39.671875 18.4375 40.136719 19.464844 L 41.980469 19.988281 C 41.980469 19.988281 41.726562 16.402344 38.484375 15.480469 Z M 36.652344 24.9375 L 21.332031 20.65625 C 21.332031 20.65625 21.5 21.496094 22.132812 22.585938 L 35.035156 26.191406 C 36.097656 25.578125 36.652344 24.9375 36.652344 24.9375 Z M 26.03125 34.160156 C 13.898438 30.90625 15.367188 15.445312 17.328125 8.121094 C 18.136719 5.101562 18.96875 2.859375 19.65625 1.355469 C 19.246094 1.269531 18.90625 1.488281 18.570312 2.171875 C 17.835938 3.65625 16.902344 6.074219 15.996094 9.457031 C 14.03125 16.78125 12.566406 32.238281 24.699219 35.492188 C 30.414062 37.023438 34.871094 34.695312 38.191406 31.039062 C 35.039062 33.890625 31.015625 35.492188 26.03125 34.160156 Z M 26.03125 34.160156 "/>
<path style=" stroke:none;fill-rule:nonzero;fill:rgb(88.627451%,34.117647%,29.803922%);fill-opacity:1;" d="M 19.328125 25.980469 L 19.328125 22.863281 L 10.660156 25.320312 C 10.660156 25.320312 11.300781 21.597656 15.820312 20.316406 C 17.191406 19.929688 18.363281 19.929688 19.328125 20.117188 L 19.328125 7.324219 L 23.667969 7.324219 C 23.195312 5.863281 22.738281 4.738281 22.355469 3.957031 C 21.71875 2.664062 21.066406 3.523438 19.589844 4.757812 C 18.550781 5.625 15.917969 7.484375 11.960938 8.550781 C 8 9.617188 4.796875 9.335938 3.464844 9.101562 C 1.570312 8.777344 0.578125 8.359375 0.671875 9.800781 C 0.753906 11.070312 1.054688 13.039062 1.75 15.640625 C 3.25 21.273438 8.203125 32.125 17.570312 29.601562 C 20.015625 28.945312 21.742188 27.640625 22.9375 25.980469 Z M 5.34375 15.71875 L 11.996094 13.964844 C 11.996094 13.964844 11.804688 16.523438 9.308594 17.183594 C 6.8125 17.839844 5.34375 15.71875 5.34375 15.71875 Z M 5.34375 15.71875 "/>
<path style=" stroke:none;fill-rule:nonzero;fill:rgb(18.039216%,67.843137%,20%);fill-opacity:1;" d="M 44.375 7.472656 C 42.644531 7.773438 38.496094 8.152344 33.363281 6.777344 C 28.234375 5.402344 24.832031 3 23.480469 1.867188 C 21.570312 0.269531 20.730469 -0.84375 19.902344 0.839844 C 19.171875 2.324219 18.234375 4.738281 17.328125 8.121094 C 15.367188 15.445312 13.898438 30.90625 26.03125 34.15625 C 38.160156 37.40625 44.617188 23.285156 46.578125 15.960938 C 47.484375 12.578125 47.882812 10.019531 47.992188 8.367188 C 48.117188 6.496094 46.832031 7.039062 44.375 7.472656 Z M 20 13.53125 C 20 13.53125 21.914062 10.558594 25.15625 11.480469 C 28.398438 12.398438 28.652344 15.988281 28.652344 15.988281 Z M 27.914062 26.871094 C 22.210938 25.203125 21.332031 20.65625 21.332031 20.65625 L 36.652344 24.9375 C 36.652344 24.9375 33.5625 28.523438 27.914062 26.871094 Z M 33.332031 17.527344 C 33.332031 17.527344 35.242188 14.554688 38.484375 15.480469 C 41.726562 16.402344 41.980469 19.988281 41.980469 19.988281 Z M 33.332031 17.527344 "/>
<path style=" stroke:none;fill-rule:nonzero;fill:rgb(83.921569%,32.54902%,28.235294%);fill-opacity:1;" d="M 16.300781 23.71875 L 10.660156 25.320312 C 10.660156 25.320312 11.273438 21.828125 15.425781 20.445312 L 12.234375 8.464844 L 11.960938 8.550781 C 8 9.617188 4.796875 9.335938 3.460938 9.101562 C 1.570312 8.777344 0.578125 8.359375 0.671875 9.800781 C 0.753906 11.070312 1.054688 13.039062 1.75 15.640625 C 3.246094 21.273438 8.203125 32.125 17.566406 29.601562 L 17.84375 29.515625 Z M 5.34375 15.71875 L 11.996094 13.964844 C 11.996094 13.964844 11.804688 16.523438 9.308594 17.183594 C 6.8125 17.839844 5.34375 15.71875 5.34375 15.71875 Z M 5.34375 15.71875 "/>
<path style=" stroke:none;fill-rule:nonzero;fill:rgb(11.372549%,55.294118%,13.333333%);fill-opacity:1;" d="M 28.171875 26.9375 L 27.914062 26.871094 C 22.210938 25.203125 21.332031 20.65625 21.332031 20.65625 L 29.234375 22.863281 L 33.414062 6.789062 L 33.363281 6.777344 C 28.234375 5.402344 24.832031 3 23.480469 1.867188 C 21.570312 0.269531 20.730469 -0.84375 19.902344 0.839844 C 19.171875 2.324219 18.234375 4.738281 17.328125 8.121094 C 15.367188 15.445312 13.898438 30.90625 26.03125 34.15625 L 26.28125 34.210938 Z M 20 13.53125 C 20 13.53125 21.914062 10.558594 25.15625 11.480469 C 28.398438 12.398438 28.652344 15.988281 28.652344 15.988281 Z M 20 13.53125 "/>
<path style=" stroke:none;fill-rule:nonzero;fill:rgb(75.294118%,29.411765%,25.490196%);fill-opacity:1;" d="M 16.585938 23.636719 L 15.074219 24.066406 C 15.433594 26.082031 16.0625 28.015625 17.050781 29.722656 C 17.21875 29.683594 17.390625 29.652344 17.566406 29.601562 C 18.027344 29.476562 18.453125 29.324219 18.863281 29.15625 C 17.757812 27.519531 17.027344 25.632812 16.585938 23.636719 Z M 15.996094 9.457031 C 15.21875 12.355469 14.523438 16.53125 14.714844 20.714844 C 15.058594 20.566406 15.417969 20.429688 15.820312 20.316406 L 16.101562 20.253906 C 15.761719 15.78125 16.496094 11.222656 17.328125 8.121094 C 17.539062 7.335938 17.75 6.609375 17.960938 5.929688 C 17.621094 6.144531 17.257812 6.363281 16.839844 6.59375 C 16.558594 7.460938 16.277344 8.40625 15.996094 9.457031 Z M 15.996094 9.457031 "/>
</g>
</svg>
